# xmcd
#
# Track frame offsets:
# 150
# 25670
# 46821
# 76897
# 109412
# 122257
# 151028
# 178772
# 198652
# 218873
# 238416
# 279688
# 317203
# 339369
# 362785
# 386762
#
# Disc length: 5403 seconds
#
# Revision: 0
# Processed by: cddbd v1.4PL0 Copyright (c) Steve Scherf et al.
# Submitted via: Axialis_AX_CDPlayer 2.6
#
DISCID=e8151910
DTITLE=Dixie Chicks - An evening with the Dixie Chicks
DYEAR=1900
DGENRE=
TTITLE0=Long time gone
TTITLE1=Landslide
TTITLE2=Travelling soldier
TTITLE3=Truth
TTITLE4=White trash wedding
TTITLE5=A Home
TTITLE6=More love
TTITLE7=I believe in love
TTITLE8=Tortured tangled heart
TTITLE9=Lil Jack blade
TTITLE10=Godspeed
TTITLE11=Top of the world
TTITLE12=Wide open spaces
TTITLE13=Cowboy take me away
TTITLE14=Goodbye Earl
TTITLE15=Sin wagon
EXTD=
EXTT0=
EXTT1=
EXTT2=
EXTT3=
EXTT4=
EXTT5=
EXTT6=
EXTT7=
EXTT8=
EXTT9=
EXTT10=
EXTT11=
EXTT12=
EXTT13=
EXTT14=
EXTT15=
PLAYORDER=
